<svg id="es4USfd8Wnj1" xmlns="http://www.w3.org/2000/svg" xmlns:xlink="http://www.w3.org/1999/xlink" viewBox="0 0 128 128" shape-rendering="geometricPrecision" text-rendering="geometricPrecision"><path d="M120.9,32.6c-1.4-2.7-3.1-4.6-5.1-5.7-.1-2.9-1.4-5.3-3.5-7.4-2.5-2.5-5.8-3.8-9.4-3.8C98.8,10.9,88.8,8,80.5,9.3c-4.1-2-9.4-1.9-13-1.9-.5,0-.9,0-1.4,0h-.5c-4.3,0-11.8-.1-15.9,3.5-4-1.6-10.3-.9-15.4.6-6.3,2-10.7,5.1-12.3,8.8-4.1,1-9.3,4.7-12.4,9.2C7.2,33,4.9,38.3,7,44.9c-2.4,6.2-1.1,12.9,3.5,18.2c4.7,5.5,11.8,7.9,18.1,6.2c3.5.4,6.1.2,7.9-.2.4,3.1,1.6,7.1,5.1,9.9c1.4,3.2,4.1,5.6,7.6,6.6c4,1.1,8.4.4,11.7-1.9c1.2-.1,2.6-.2,4.1-.5-.2,2.5,0,4.8.6,6.8.2,2.1,2.1,13.4,13.3,18.8c11.4,5.5,10.9,8.8,10.9,9.8c0,3.3,3.8,5.2,7.6,5.3.1,0,.2,0,.5,0c3.8,0,6.6-2.1,6.8-5.2.5-6.6-.6-7.8-5.4-13.4-1.6-1.9-2.6-5.2-3.2-7.4c2.2-.5,4.2-1.2,6.1-2.2c2.9,0,5.7-1.1,7.8-3.2s3.3-4.7,3.5-7.7c6.8-4.7,10.2-15.2,8.2-25.8c3.2-7.4,2.8-19.1-.8-26.4ZM110,81.1c-.9.5-1.4,1.4-1.2,2.2.1,2.1-.6,4.1-2,5.5-1.2,1.2-2.9,1.9-4.5,1.9-6.6-2.5-6.3-7.8-6.2-8.4.1-1.4-.9-2.6-2.2-2.7s-2.6.9-2.7,2.2c-.4,2.6.5,7.6,5,11.2-3.1.9-7.1,1.2-12.4,1.2-6,0-10-1.2-12-3.8-1.5-1.9-1.9-4.6-1.2-7.9c7.3-1.4,9.7,2,9.8,2.2.5.7,1.2,1.2,2.1,1.2.4,0,.9-.1,1.2-.4c1.2-.6,1.6-2.2,1-3.3-.1-.2-4.3-7.2-16.6-4.3v0c-2.5.5-4.7.7-6.6.9-5.3-6.3-1.5-10.8-1-11.3c1-1,.9-2.6-.1-3.5-1-1-2.6-.9-3.5,0-2.6,2.6-5.5,9.3-.2,16.6-1.7.6-3.8.7-5.6.2-1.6-.5-3.6-1.5-4.6-4.2-.1-.5-.5-.9-.9-1.1-4.5-3.3-3.8-9.4-3.7-10.4.9-2.5,3.6-8.1,11.3-10.3c3.5-1,6.3-.4,9.8.2c1,.2,2.1.4,3.2.6c1.2,8.9,10.7,12.3,11,12.5.2.1.5.1.9.1c1,0,2-.6,2.4-1.6.5-1.2-.2-2.7-1.5-3.1-.1,0-6.1-2.2-7.6-7.4c8.2-.2,11.2-6.4,11.5-9.8.1-1.4-.7-2.6-2.1-2.7s-2.6.7-2.7,2.1c-.1.5-1,5.5-7.2,5.5-2.5,0-4.7-.5-6.8-.9-3.7-.7-7.6-1.5-12.1-.1-5.7,1.6-9.3,4.8-11.5,7.8-1.6-2.2-4-3.6-6-4.7-1.4-.7-2.7-1.5-3.6-2.5-2.2-2.2.4-6.8.4-6.8.7-1.1.4-2.7-.9-3.3-1.5-1.1-3-.7-3.7.5-1.7,3-3.7,8.9.4,13c1.4,1.4,3.1,2.4,4.7,3.2c3.3,1.9,5.2,3.1,5.2,6.3-.6.4-2.5,1.4-7.9.7-.4,0-.6,0-1,.1-4.6,1.4-9.8-.5-13.5-4.6-3.6-4.1-4.5-9.3-2.4-13.9.2-.6.2-1.2,0-1.9-1.9-5-.1-9.1,1.7-11.8c1.6-2.4,3.8-4.2,5.7-5.5.6.4,1.2.5,2,.4c6.3-1.6,10.5,5.7,10.8,6.1.5.9,1.2,1.2,2.1,1.2.4,0,.9-.1,1.2-.4c1.2-.6,1.6-2.2,1-3.3-.2-.4-3.7-6.6-9.9-8.4.9-2.4,4.3-4.7,9.3-6.2c6.4-2,11.5-1.5,12.6-.6c3.8,5.5,1.5,8.6-1.5,12.5-.6.9-1.2,1.6-1.9,2.5-5,7.4-1.4,13,1.4,15c.5.4,1,.5,1.5.5.7,0,1.5-.4,2-1c.9-1.1.6-2.6-.5-3.5-.6-.5-3.6-3.2-.1-8.3.5-.7,1.1-1.5,1.6-2.2c2.9-3.7,7.2-9.2,2.6-16.9c2.9-2,9.4-2,12.1-1.9h.5c.4,0,.9,0,1.4,0c3.3,0,8.4,0,11.4,1.6.5.2,1.1.4,1.7.2C88,12.7,96,15.5,99,18.3c-1.4,2.7-3.7,8.8-2.4,14.5c1.5,6.7,1.7,8.4-3.7,10.4-1.2.5-2,1.9-1.5,3.2.4,1,1.4,1.6,2.4,1.6.2,0,.6,0,.9-.1c3.6-1.4,5.7-3.1,6.8-5.1.6.2,1,.6,1.4,1.1c1.7,2.2,1.5,6.3,1.4,7.7-.2,1.4.7,2.6,2.1,2.9.1,0,.2,0,.4,0c1.2,0,2.2-.9,2.5-2.1.1-.7,1-7.2-2.4-11.5-1.1-1.5-2.6-2.5-4.3-3.1-.1-2-.5-4.1-1-6.2-1-4.3,1-9.2,2-11.3c2.2.1,4.2,1,5.7,2.4c1.5,1.5,2.1,3.5,2,5.5-.1,1.2.7,2.5,2,2.7c1.2.2,2.6,1.6,3.6,3.7c2.9,5.8,3.2,15.9.9,21.8c0,.1-.1.1-.1.1-2.2,3.2-5.1,3.3-9.9,3.3-1.6,0-3.1,0-4.8.1-7.6.7-11.2,8.3-11.3,8.7-.6,1.2,0,2.7,1.2,3.3.4.1.7.2,1,.2c1,0,1.9-.5,2.2-1.5c0,0,2.6-5.3,7.3-5.8c1.4-.1,2.9-.1,4.3-.1c3.3,0,6.9,0,10-1.7.1,8.1-2.7,15.3-7.7,18.1Z" transform="translate(-.844068-1.649676)" fill="#fa5a00"/><path d="M73.9,26.9c.2-2.6-.2-4.8-.2-5.1-.2-1.4-1.6-2.1-3-1.9s-2.1,1.6-1.9,3c0,0,1.1,5.5-1.7,7.3-.5.2-1,.6-1.5.9-4.1,2.5-8.8,5.2-7.7,11.5.2,1.2,1.2,2.1,2.5,2.1.1,0,.2,0,.5,0c1.4-.2,2.2-1.5,2-2.9-.5-2.7,1-3.8,5.3-6.4.5-.2,1-.6,1.5-.9c1.1-.6,1.9-1.5,2.5-2.4c7.1-1.2,10.8,4.5,10.9,4.7.5.7,1.2,1.1,2.1,1.1.5,0,.9-.1,1.2-.4c1.1-.7,1.5-2.2.9-3.5-1.7-2.6-6.5-7.1-13.4-7.1Z" fill="#fa5a00"/></svg>
